<svg xmlns="http://www.w3.org/2000/svg" viewBox="0 0 1826.92 2212.22"><defs><style>.cls-1{fill:#ffac27;}.cls-2{fill:#650000;}.cls-3{opacity:0.3;}.cls-4{opacity:0.56;}.cls-5{fill:#fff;}.cls-6{fill:#c11734;}.cls-7{fill:#ffc306;}.cls-8{fill:#ff2015;}.cls-9{opacity:0.25;}.cls-10{fill:#7a2938;}.cls-11{fill:#81cc1f;}.cls-12{fill:#ff6c6c;}.cls-13{fill:#ff3b2c;}</style></defs><g id="Layer_2" data-name="Layer 2"><g id="Layer_1-2" data-name="Layer 1"><path class="cls-1" d="M1782.55,1708.88c0,208.18-195.83,485.82-855,485.82s-855-277.64-855-485.82,195.84-377,855-377S1782.55,1500.69,1782.55,1708.88Z"/><path class="cls-2" d="M927.55,2197.2c-297.67,0-525.16-55.62-676.15-165.32-157.79-114.63-181.35-251.58-181.35-323,0-115.74,61.12-206.17,181.66-268.77,141.43-73.45,368.82-110.69,675.84-110.69s534.42,37.24,675.84,110.69c120.54,62.6,181.66,153,181.66,268.77,0,71.42-23.56,208.37-181.34,323C1452.72,2141.58,1225.23,2197.2,927.55,2197.2Zm0-862.78c-306.21,0-532.82,37-673.53,110.13-118.75,61.67-179,150.6-179,264.33,0,70.47,23.29,205.62,179.29,318.95C404.45,2136.9,631,2192.2,927.55,2192.2s523.1-55.3,673.22-164.37c156-113.33,179.28-248.48,179.28-318.95,0-113.73-60.21-202.66-179-264.33C1460.38,1371.47,1233.77,1334.42,927.55,1334.42Z"/><g class="cls-3"><path class="cls-2" d="M893.23,2194.54c642.52-5.77,834.32-279.66,834.32-485.66a299.57,299.57,0,0,0-4.9-54.27l0-.07c-33.84,57.3-106.26,109.49-234,147.25-39.47,11.66-72.14,39.23-91.58,75.51-77.34,144.37-267.62,280.29-645.58,310.93q77.63,6.38,166,6.45h0Q905.28,2194.68,893.23,2194.54Z"/></g><g class="cls-4"><path class="cls-5" d="M967.75,2194.33q-19.8.38-40.2.35c-659.15,0-855-277.6-855-485.8s195.85-377,855-377c13.6,0,27,0,40.2.25-627,6.7-814.85,172.8-814.85,376.7S340.75,2183.28,967.75,2194.33Z"/></g><path class="cls-2" d="M938.92,2212.22c-301.36,0-533.68-56.55-690.51-168.09-122.88-87.39-193.36-209.58-193.36-335.25,0-121.79,63.84-216.7,189.75-282.08,143.59-74.57,373.3-112.38,682.75-112.38s539.17,37.81,682.76,112.38c125.91,65.38,189.74,160.29,189.74,282.08,0,74.73-23.6,217.64-181.69,335C1468,2155.59,1239.38,2212.22,938.92,2212.22Zm-11.37-862.8c-555.72,0-837.5,120.94-837.5,359.46,0,114.19,65.12,226,178.64,306.73,148.67,105.72,380.43,161.61,670.23,161.61,609.11,0,826.13-241.93,826.13-468.34C1765.05,1470.36,1483.28,1349.42,927.55,1349.42Z"/><path class="cls-6" d="M1744.55,1499.43c0,149-187.15,294.8-817,294.8-4.45,0-8.9,0-13.3,0a6.55,6.55,0,0,1-1.4,0c-618-2.25-802.3-146.9-802.3-294.75,0-148.2,185.25-268.55,807.5-269.7,3.15,0,6.3,0,9.5,0C1557.4,1229.68,1744.55,1350.48,1744.55,1499.43Z"/><g class="cls-3"><path class="cls-2" d="M481.07,1258.61q13.88-.1,28-.13c3.15,0,6.3,0,9.5,0,140.81,0,259.44,6,358.85,17.09q-9.69-.86-19.62-1.66c399.92,32.35,527.77,136.22,527.77,259.32,0,99.33-83.25,197.14-325.19,251.43,483.93-25.84,634.14-156.71,634.14-290.18,0-115.65-112.88-214.32-458.14-252.66-88.55-7.86-191-12.09-308.86-12.09-3.2,0-6.35,0-9.5,0-190.65.38-340.22,11.93-456.06,32Q471.4,1260.17,481.07,1258.61Z"/></g><g class="cls-4"><path class="cls-5" d="M954.1,1793.88c-13.1.2-26.35.3-39.85.3a6.55,6.55,0,0,1-1.4,0c-618-2.25-802.3-146.9-802.3-294.75,0-148.2,185.25-268.55,807.5-269.7q18.3,0,36.05.25c-587.15,6.7-763.6,124.8-763.6,269.45S367,1785.83,954.1,1793.88Z"/></g><path class="cls-2" d="M938.42,1811.73c-735.54,0-845.37-195.66-845.37-312.29,0-90,61.72-159.7,183.46-207,136.83-53.21,355.87-80.19,651-80.19s514.22,27,651.05,80.19c121.74,47.35,183.46,117,183.46,207C1762.06,1641.9,1619.16,1811.73,938.42,1811.73ZM927.55,1247.2c-290.81,0-505.59,26.18-638.36,77.81-108.43,42.17-161.14,99.23-161.14,174.43,0,83.37,79,277.29,810.37,277.29,508.56,0,788.64-98.48,788.64-277.29,0-75.2-52.71-132.26-161.14-174.43C1433.14,1273.38,1218.37,1247.2,927.55,1247.2Z"/><path class="cls-7" d="M1537.16,1410.81c-215.71,29.47-427.87,101-550.84,228.51a64.61,64.61,0,0,1-93.45,0c-123-127.46-335.14-199-550.85-228.51Q939.59,1253,1537.16,1410.81Z"/><path class="cls-2" d="M939.59,1661.81h0a66.86,66.86,0,0,1-48.53-20.75c-109.42-113.43-304.53-194.32-549.37-227.77l-12.41-1.7,12.11-3.2c396.94-104.8,799.47-104.8,1196.41,0l12.11,3.2-12.41,1.7c-244.84,33.45-439.95,114.34-549.38,227.77A66.86,66.86,0,0,1,939.59,1661.81ZM354.75,1410.07c240.14,34.62,431.57,115.21,539.91,227.52a62.13,62.13,0,0,0,89.86,0c108.35-112.31,299.78-192.9,539.92-227.52C1136.32,1309.71,742.87,1309.71,354.75,1410.07Z"/><g class="cls-4"><path class="cls-5" d="M990.35,1620.68q-9.83,9.15-19.05,18.65a64.61,64.61,0,0,1-93.45,0c-123-127.45-335.1-199-550.85-228.5q64.58-17,129.2-30.4c179.9,36.7,346.55,106.7,453.9,212C930.35,1612.23,961,1620.43,990.35,1620.68Z"/></g><path class="cls-2" d="M939.6,1676.79a81.77,81.77,0,0,1-59.35-25.3c-107-111-299-190.32-540.59-223.33a17.5,17.5,0,0,1,4.73-34.68c249.33,34.08,448.57,117.07,561.05,233.71a47.24,47.24,0,0,0,68.3,0c112.48-116.64,311.74-199.63,561.05-233.71a17.5,17.5,0,0,1,4.74,34.68c-241.56,33-433.54,112.33-540.6,223.33A81.81,81.81,0,0,1,939.6,1676.79Z"/><path class="cls-7" d="M267.63,1456s-112.28,13-183,82.12c-15.72,15.38-42.43,5.79-44.72-16.08-4.91-46.92-1.68-111.75,41.13-155.66"/><path class="cls-2" d="M66.33,1548.18a29.22,29.22,0,0,1-9.94-1.75,28.61,28.61,0,0,1-18.93-24.09c-5-47.27-1.71-113,41.82-157.67l3.59,3.5c-42.19,43.27-45.28,107.44-40.44,153.65a23.93,23.93,0,0,0,40.48,14.55c70.49-69,183.31-82.68,184.43-82.81l.58,5c-1.12.13-112.27,13.66-181.51,81.42A28.63,28.63,0,0,1,66.33,1548.18Z"/><g class="cls-4"><path class="cls-5" d="M74.3,1527.93a25.8,25.8,0,0,0,5.7,13.85c-15.8,9.85-37.95.15-40-19.7-4.9-46.9-1.7-111.75,41.1-155.65l27.65,13.25C72.25,1423.23,69.6,1483.53,74.3,1527.93Z"/></g><path class="cls-7" d="M1576.28,1466.77s113,2.39,189.85,64.65c17.09,13.84,42.78,1.8,43-20.19.5-47.18-8.78-111.41-55.5-151.14"/><path class="cls-2" d="M1782.64,1539.81a28.62,28.62,0,0,1-18.08-6.45c-75.32-61-187.21-64.07-188.33-64.09l.11-5c1.13,0,114.74,3.13,191.36,65.21a23.94,23.94,0,0,0,39-18.27c.49-46.47-8.59-110.08-54.62-149.21l3.24-3.81c47.51,40.39,56.88,105.53,56.38,153.07a28.62,28.62,0,0,1-16.6,25.75A29.08,29.08,0,0,1,1782.64,1539.81Z"/><g class="cls-3"><path class="cls-2" d="M1774,1533.39c.06-.71.17-1.42.18-2.16.49-46.24-8.51-108.8-52.85-148.67l-140,84.21s113,2.39,189.85,64.65a26.77,26.77,0,0,0,5.81,3.54A24.89,24.89,0,0,1,1774,1533.39Z"/></g><path class="cls-2" d="M1782.61,1554.83a43.52,43.52,0,0,1-27.49-9.81c-71.12-57.62-178.15-60.73-179.22-60.76a17.5,17.5,0,0,1,.75-35c4.86.1,119.92,3.27,200.5,68.55a8.93,8.93,0,0,0,14.5-6.77c.46-43.26-7.73-102.25-49.34-137.62a17.5,17.5,0,0,1,22.67-26.67c51.94,44.15,62.21,113.91,61.67,164.66a43.5,43.5,0,0,1-25.22,39.17A44.23,44.23,0,0,1,1782.61,1554.83Z"/><path class="cls-8" d="M1765.65,1239.73l-16,141.35c-8.85,78-215.4,118.7-461.25,90.8-26.15-3-51.65-6.6-76.4-10.75-208.1-35.25-360.7-111.3-352.8-181l13.7-121,2.3-20.35c8.85-78.1,215.35-118.8,461.25-90.9S1774.5,1161.63,1765.65,1239.73Z"/><g class="cls-3"><path class="cls-2" d="M1725.65,1239.73l-16,141.35c-7.55,66.45-158.6,105.85-355.25,98.75,151.1-6,258.9-42.8,265.25-98.7l16-141.35c8.85-78.1-183.3-164-429.2-191.85-36.35-4.1-71.85-6.75-106-8,59.75-2.4,126.3,0,196,7.9C1542.35,1075.73,1734.5,1161.63,1725.65,1239.73Z"/></g><g class="cls-9"><polygon class="cls-5" points="1414.22 1339.36 1529.22 1331.9 1510.89 1474.08 1392.55 1480.68 1414.22 1339.36"/></g><path class="cls-2" d="M1438.44,1498a1361.12,1361.12,0,0,1-152-8.72c-224.27-25.43-456.31-108.07-444.63-211.14l16-141.36c11.69-103.11,256.36-131.73,480.61-106.31,120.66,13.68,232.63,41.56,315.29,78.5,89.9,40.18,134.61,86.06,129.33,132.69h0L1767,1383C1758,1462.84,1609.22,1498,1438.44,1498ZM1184.8,1056.48c-172,0-287,38-292.21,84.25l-16,141.36c-6.64,58.61,161.66,143.84,413.79,172.42s435.25-16.81,441.89-75.42l16-141.36c3.25-28.7-37.43-64.88-108.83-96.79-79.47-35.52-187.77-62.4-305-75.68A1335.44,1335.44,0,0,0,1184.8,1056.48Z"/><path class="cls-2" d="M1455.38,1354.39a1363.06,1363.06,0,0,1-152.66-8.91c-120.41-13.65-232.13-41.46-314.56-78.3-88.8-39.68-133-84.67-127.86-130.11l29.81,3.38c-6.78,59.8,162.39,146.47,416,175.22,117.43,13.32,229.28,11.35,314.92-5.52,77.86-15.34,126.35-42.31,129.74-72.14l29.8,3.38c-5.15,45.44-58.31,79.39-153.73,98.19C1576.85,1349.43,1518.42,1354.39,1455.38,1354.39Z"/><g class="cls-3"><path class="cls-2" d="M1237.55,1321.38,1212,1461.13c-208.1-35.25-360.7-111.3-352.8-181l13.7-121C948.3,1250.28,1076.35,1299.08,1237.55,1321.38Z"/></g><path class="cls-8" d="M971.8,1314.73c2.3,63-125.15,121.2-303.6,146.35h-.1a1360.87,1360.87,0,0,1-138.9,12.05c-16.5.6-32.85.9-49,.95a1243.92,1243.92,0,0,1-156-9.15c-145.4-18.35-245.95-62.6-247.95-117.65L71.1,1205.13c-2.9-78.55,195.3-149.5,442.6-158.45S963.8,1094,966.65,1172.53l.35,10.3Z"/><g class="cls-9"><path class="cls-5" d="M480.25,1331.88v142.2a1243.92,1243.92,0,0,1-156-9.15V1323.38A1233,1233,0,0,0,480.25,1331.88Z"/></g><g class="cls-4"><path class="cls-5" d="M123.4,1205.13l5.15,142.15c2.55,70,164.25,122.45,374.7,126.55-235.4,4.3-424.25-50.85-427-126.55L71.1,1205.13c-2.9-78.55,195.3-149.5,442.6-158.45,26.55-1,52.6-1.2,77.95-.7-8.5.15-17,.4-25.65.7C318.7,1055.63,120.55,1126.58,123.4,1205.13Z"/></g><path class="cls-2" d="M477.42,1491.56c-101.73,0-196.47-11-271-31.7-94.87-26.36-145.92-65.07-147.62-111.95l-5.17-142.16c-1.71-46.9,46.39-89.23,139.09-122.42,85.25-30.52,199-49.75,320.38-54.16s236.23,6.51,323.46,30.75c94.87,26.37,145.91,65.09,147.61,112h0l5.18,142.17c3.76,103.67-233.93,168.32-459.48,176.52C512.21,1491.24,494.7,1491.56,477.42,1491.56Zm88.23-428.36q-25.39,0-51.32.94c-117.86,4.29-227.9,22.81-309.85,52.14-73.63,26.36-117,59.33-115.91,88.19l5.17,142.17c1,28.84,46.65,58.56,122,79.49,83.87,23.31,194.94,33.77,312.81,29.5,253.58-9.22,427.91-81.33,425.77-140.28l-5.18-142.17c-1-28.86-46.65-58.6-122-79.54C755.58,1073.75,664.16,1063.2,565.65,1063.2Z"/><path class="cls-2" d="M471.48,1346.9a1238,1238,0,0,1-149.09-8.63C158,1318.4,58.44,1268.84,56.11,1205.68l30-1.11c1.38,37.47,76.1,84.12,239.91,103.91a1213.39,1213.39,0,0,0,154.16,8.4c14.2-.05,28.77-.35,43.34-.89,255-9.28,430.35-82.77,428.16-142.92l30-1.09c3.71,102.07-232.71,165.82-457,174-14.89.55-29.8.86-44.3.91C477.36,1346.9,474.41,1346.9,471.48,1346.9Z"/><g class="cls-3"><path class="cls-10" d="M971.8,1314.73c2.3,63-125.15,121.2-303.6,146.35h-.1l-8.15-.7v-137c158.25-21.05,303.35-48.25,306.1-141.7,0,0,.35.4,1,1.15Z"/><path class="cls-2" d="M667.89,1463.57l-10.43-.9V1321.19l2.16-.29c158.63-21.1,301.24-47.63,303.93-139.3l.19-6.33,4.19,4.76s.38.43,1,1.23l.52.65,4.83,132.73c2.29,63-120.58,122.82-305.76,148.91Zm-5.43-5.49,5.86.51c182-25.71,303.19-83.49,301-143.77l-4.06-111.52c-22.52,77.93-155.61,102.62-302.79,122.27Z"/></g><path class="cls-11" d="M1698.45,1144c-28.75-14.45-46.85-11.6-68.15-1.1-19.3,9.55-29.1,31-26.9,52.45,4,38.4-18,78.15-52.6,95.25-14.35,7.1-31,8.7-47.5,6.15a115.83,115.83,0,0,1-61.6-30.35c-42.55-41.2-109.8-47-166.9-31.2s-107.2,49.6-158,80.15S1011.3,1374.28,952.1,1377c-50.1,2.35-114.45-13.6-145.45-52.35-14.7-18.35-41.6-20.4-59.35-5l-.35.3c-13,11.4-24.75,24.9-40.55,31.9-25.95,11.55-56.9,2.5-80.85-12.85S581.7,1302.73,558,1287s-81.2-62.3-226.8,22.8c-42.45,24.75-113.5,9.25-113.65-74.2-.05-39,10.55-83.35-13.45-114.1-22.75-29.2-65.25-42.1-101.9-37.65C-16,1098-17.4,949.68,142.55,895.28l1376.3,22.2,182.8,2.95C1894.35,1062.18,1786.45,1188.13,1698.45,1144Z"/><path class="cls-2" d="M942.22,1379.76c-48.66,0-107.53-16-137.52-53.52a38,38,0,0,0-26.45-14.19,38.93,38.93,0,0,0-29.31,9.56c-3.45,3-6.48,5.87-9.53,8.72-9.64,9-19.61,18.39-32,23.88-33.48,14.92-69.34-4.14-83.21-13-12.61-8-24.22-17.76-35.45-27.15-10.26-8.6-20.88-17.49-32.14-25l-3-2c-24.76-16.74-82.72-56-221.1,24.93-24.58,14.32-55.71,14.83-79.29,1.32-24.52-14.06-38.06-41.65-38.13-77.68,0-9.21.58-18.86,1.15-28.19,1.83-30.27,3.73-61.57-14.07-84.38-20.78-26.66-60.82-41.42-99.63-36.7-45.08,5.39-77.95-12.58-85.77-47-10.64-46.76,29.56-114,125-146.44l.41-.14h.43l1559.9,25.16.64.47c112,82.38,122.15,159.91,96.83,201.27-20.84,34-65,45.47-102.63,26.58h0c-28.21-14.18-45.54-11.14-65.92-1.09-17.44,8.63-27.69,28.71-25.52,49.95,4.08,39.17-18.62,80.27-54,97.75-14.05,7-31,9.16-49,6.38a117.56,117.56,0,0,1-63-31c-45-43.59-114.49-44.37-164.5-30.58-48.67,13.42-93,40.53-135.77,66.75-7.19,4.4-14.36,8.8-21.56,13.13-50.82,30.56-106.09,59.22-165.92,62C948.94,1379.68,945.6,1379.76,942.22,1379.76ZM774.7,1306.89c1.32,0,2.66.06,4,.18a42.91,42.91,0,0,1,29.91,16c30.8,38.51,96,53.65,143.38,51.42,58.72-2.73,113.32-31.07,163.58-61.3,7.18-4.32,14.35-8.71,21.52-13.1,43.11-26.4,87.69-53.7,137.05-67.31,51.33-14.17,122.77-13.25,169.3,31.81,15.78,15.28,38.3,26.38,60.24,29.67,17,2.63,32.88.58,46-5.91,33.55-16.58,55.08-55.59,51.22-92.75-2.39-23.32,9-45.4,28.27-55,21.25-10.48,40.45-14,70.38,1.1h0c35.31,17.7,76.65,7.08,96.12-24.72,24.17-39.48,13.78-114-94.88-194.16L143,897.78C50.56,929.36,11.47,993.67,21.61,1038.24c7.2,31.67,38,48.19,80.29,43.1,40.46-4.9,82.36,10.6,104.18,38.6,19,24.3,17,56.56,15.11,87.76-.57,9.25-1.15,18.82-1.14,27.87.07,34.17,12.71,60.22,35.61,73.35,21.73,12.46,51.58,11.93,74.29-1.3,141.09-82.46,200.89-42,226.42-24.75l3,2c11.5,7.64,22.23,16.62,32.59,25.3,11.11,9.3,22.59,18.91,34.93,26.78,13.19,8.45,47.22,26.58,78.49,12.67,11.61-5.14,21.26-14.2,30.61-23,3.07-2.89,6.15-5.78,9.3-8.54A44.41,44.41,0,0,1,774.7,1306.89Z"/><g class="cls-4"><path class="cls-5" d="M1184.65,1274.68c-22.9,13-45.3,27.2-67.8,40.7-50.8,30.55-105.55,58.9-164.75,61.65-50.1,2.35-114.45-13.6-145.45-52.35-14.7-18.35-41.6-20.4-59.35-5l-.35.3c-13,11.4-24.75,24.9-40.55,31.9-25.95,11.55-56.9,2.5-80.85-12.85S581.7,1302.73,558,1287s-81.2-62.3-226.8,22.8c-42.45,24.75-113.5,9.25-113.65-74.2-.05-39,10.55-83.35-13.45-114.1-22.75-29.2-65.25-42.1-101.9-37.65C9.5,1095-11.35,1006.13,61.1,941c-25.65,54.35,2.9,106.75,75.4,98,36.65-4.4,79.15,8.5,101.9,37.65,24,30.8,13.4,75.1,13.45,114.15.15,83.45,71.2,98.95,113.65,74.15,145.6-85,203-38.5,226.8-22.75s43.55,36.8,67.55,52.1,54.9,24.35,80.85,12.8c15.8-7,27.55-20.5,40.55-31.85l.35-.3c17.75-15.45,44.65-13.45,59.35,5,31,38.7,95.35,54.65,145.45,52.3,59.2-2.7,130.35-30,181.15-60.55,3.45-2.1,6.85-4.2,10.2-6.35Z"/></g><path class="cls-2" d="M942.5,1394.74c-52.45,0-116.39-17.73-149.52-59.13a23,23,0,0,0-16.05-8.63,24.12,24.12,0,0,0-18.14,6c-3.33,2.92-6.27,5.67-9.2,8.42-10,9.42-21.42,20.09-36.13,26.57-28.2,12.55-63.7,7.41-97.35-14.07-13.37-8.54-25.31-18.54-36.84-28.22-10.45-8.75-20.32-17-30.94-24.06l-3.16-2.13c-22.41-15.16-74.9-50.65-205.15,25.43-29.09,17-66.09,17.57-94.26,1.43-17-9.75-45.59-34.49-45.69-90.69,0-9.68.58-19.57,1.15-29.13,1.74-28.75,3.37-55.91-10.93-74.26-17.38-22.28-52.79-35-86-31-52.55,6.29-92.65-16.66-102.19-58.52C-10.3,988.2,32,914.39,136.9,878.72a16.81,16.81,0,0,1,5.92-.94L1701.93,903a17.39,17.39,0,0,1,10.09,3.4c120,88.31,130.74,172.16,100.71,221.19-24.93,40.72-77.45,54.52-122.12,32.12-23-11.56-35.31-9.55-52.56-1-11.87,5.85-18.8,19.89-17.25,34.95,4.77,45.87-20.81,92.24-62.22,112.73-43.34,21.47-98.86,1.94-129.07-27.34-40.48-39.19-104-39.58-150-26.88-46.63,12.88-90,39.42-131.91,65.08-7.23,4.43-14.46,8.85-21.7,13.2-52.47,31.58-109.73,61.21-172.92,64.13Q947.81,1394.74,942.5,1394.74ZM774.86,1291.89c1.74,0,3.47.08,5.21.24a57.66,57.66,0,0,1,40.24,21.62c27.52,34.37,87.28,47.82,131,45.79,55.43-2.57,108-30,156.51-59.16q10.74-6.47,21.47-13.06c44-26.93,89.48-54.78,140.87-69,55.31-15.28,132.62-14,183.7,35.47,21.92,21.24,61.28,35,89.19,21.11,28.12-13.91,46.17-46.61,42.93-77.76-3-29.56,11.67-57.65,36.58-69.94,24.65-12.17,48.33-16.63,83.75,1.13,28.75,14.42,61,6.38,76.58-19.11,20.6-33.63,9.79-98.41-87.16-171.41l-1550.39-25C63,941.82,27.62,997.1,36.22,1034.9c5.44,23.91,29.36,35.7,63.88,31.53,45.54-5.48,92.87,12.31,117.79,44.27,22.44,28.78,20.22,65.49,18.27,97.88-.57,9.45-1.11,18.37-1.09,27,.05,29,9.76,49.89,28.09,60.38,17.22,9.87,41,9.35,59.21-1.28,149.28-87.21,214.54-43.05,242.41-24.2l2.89,2c12.27,8.12,23.35,17.42,34.08,26.41,11.17,9.37,21.74,18.22,33.2,25.54,23.23,14.84,47.3,19.15,64.35,11.57,9.29-4.1,17.57-11.87,26.34-20.09,3.24-3,6.46-6.06,9.76-8.95l.4-.34A59.71,59.71,0,0,1,774.86,1291.89Z"/><g class="cls-3"><path class="cls-2" d="M1739.64,1152.84c40.51-36.54,42-121.83-83-213.79l-143.15-2.31-44.35,159.44c75.9,42.58,63.64,153-9.61,184.13,0,0,44.31,14.82,43.76,16.47a92,92,0,0,0,20.18.9c24.11-20.09,38.19-52.33,34.92-83.68-2.2-21.45,7.6-42.9,26.9-52.45,10.83-5.34,20.84-8.68,31.84-8.8a46.23,46.23,0,0,1,13.16-9.82c21.3-10.5,39.4-13.35,68.15,1.1a81.15,81.15,0,0,0,43.16,8.66C1741,1152.74,1740.3,1152.8,1739.64,1152.84Z"/></g><path class="cls-1" d="M1805,799.78c0,155.2-176,261.25-416.6,318.15q-31.28,7.35-63.9,13.65c-121.85,23.5-256.6,35.4-391.55,35.65-3.3,0-6.6,0-9.9,0-149.2-.3-298.2-14.75-429.8-43.4-254-55.2-443.15-163.25-443.15-324.1,0-146.75,59.15-266.65,155.65-359.55a116.26,116.26,0,0,0,35.65-87.35c-6.75-215,31.4-331.45,120.8-335.3,70.2-3,171.9,63.35,308.3,205.8,168.45-31.7,350.75-31.4,518.9.85,312.1-326.35,443.15-254.9,429.8,133.65a116.06,116.06,0,0,0,34.8,86.8c73.4,72.2,124.35,160.35,143.1,264.5v.05A511.08,511.08,0,0,1,1805,799.78Z"/><path class="cls-2" d="M923.06,1169.78c-152.35-.31-301.16-15.34-430.34-43.46C205.68,1064,47.6,948,47.6,799.78c0-139.86,52.63-261.44,156.42-361.36A113.94,113.94,0,0,0,238.91,353C232,132.57,273.43,18.9,362.09,15.08c71.42-3,175.55,66.11,309.28,205.59,167-31.23,350.49-30.93,517.17.85C1344.14,59,1459.41-8.07,1531.13,22.16c66.79,28.13,97.26,141.12,90.57,335.8a113.83,113.83,0,0,0,34.06,84.93c77.36,76.11,125.75,165.55,143.8,265.84a517.05,517.05,0,0,1,7.94,91c0,142.89-148.63,256.74-418.52,320.58-20.81,4.89-42.34,9.49-64,13.67-119.77,23.1-255.33,35.44-392,35.7C929.68,1169.78,926.37,1169.78,923.06,1169.78ZM366.74,20c-1.5,0-3,0-4.43.09C276.92,23.75,237.09,135.7,243.91,352.8A119,119,0,0,1,207.49,442C104.72,541,52.6,661.33,52.6,799.78c0,75.65,42.13,142.81,125.22,199.6,74.93,51.21,184.19,93.42,316,122.05,128.84,28,277.28,43,429.27,43.35,3.28,0,6.57,0,9.85,0,136.43-.26,271.66-12.57,391.12-35.61,21.59-4.17,43.06-8.75,63.8-13.63,267.4-63.25,414.67-175.37,414.67-315.71a510.73,510.73,0,0,0-7.86-90.11c-17.86-99.3-65.77-187.84-142.39-263.21a118.88,118.88,0,0,1-35.55-88.67c6.61-192.4-22.83-303.77-87.51-331-69.75-29.38-183.47,37.62-338,199.19l-.94,1-1.34-.26c-166.86-32-350.82-32.31-518-.85l-1.34.25-.93-1C538.33,89,436.78,20,366.74,20Z"/><g class="cls-4"><path class="cls-5" d="M947.65,1167.08l-14.7.15c-3.3,0-6.6,0-9.9,0-149.2-.3-298.2-14.75-429.8-43.4-254-55.2-443.15-163.25-443.15-324.1,0-146.75,59.15-266.65,155.65-359.55a116.26,116.26,0,0,0,35.65-87.35c-6.75-215,31.4-331.45,120.8-335.3a140.62,140.62,0,0,1,27.55,4.05C317.35,44.08,286.6,158,292.7,352.88A116.12,116.12,0,0,1,257,440.23C160.5,533.13,101.4,653,101.4,799.78c0,160.85,189.1,268.9,443.15,324.1C668.3,1150.83,807.4,1165.23,947.65,1167.08Z"/></g><g class="cls-4"><path class="cls-5" d="M1522.35,21.63c-60.35,14.73-156.7,87-258.26,187.64a103,103,0,0,1-87.9,28.67l-.73-.11C1324.11,84.23,1453.35.18,1522.35,21.63Z"/></g><path class="cls-5" d="M1360.78,1111.73s-7.55,8-19.2,19.85c-259.5,50.05-577.7,47.5-831.25-7.7-10-7.55-16-12.15-16-12.15C393,944.28,541.68,867.43,621.48,839.68c28-9.75,51.5-29.6,64.8-56.1,51.6-102.75,116.55-156,241.3-160.3,124.75,4.35,189.65,57.55,241.25,160.3,13.3,26.5,36.8,46.35,64.8,56.1C1313.43,867.43,1462.13,944.28,1360.78,1111.73Z"/><path class="cls-5" d="M1320.58,256.89q210-243.81,194.56,83.64"/><path class="cls-2" d="M1517.64,340.65l-5-.23c5.11-108.47-8.44-169.9-40.26-182.58-31.22-12.44-81.66,21.44-149.92,100.68l-3.78-3.26c70.78-82.18,121.64-115.57,155.55-102.06C1508.74,166.94,1522.94,228.26,1517.64,340.65Z"/><g class="cls-4"><path class="cls-5" d="M1515.75,324.33h0q4.57-145.12-39.45-167.4,78.29-28.45,78.21,141.73A27.82,27.82,0,0,1,1515.75,324.33Z"/></g><path class="cls-5" d="M532.07,256.89q-210-243.81-194.56,83.64"/><path class="cls-2" d="M335,340.65c-5.3-112.39,8.9-173.71,43.4-187.45,33.87-13.51,84.77,19.88,155.55,102.06l-3.78,3.26C461.92,179.28,411.51,145.4,380.26,157.84,348.43,170.52,334.89,232,340,340.42Z"/><g class="cls-4"><path class="cls-5" d="M530.8,255.48h0q-83.62-96.75-131.25-102.3,38.58-56.49,141.66,50.55A32.11,32.11,0,0,1,530.8,255.48Z"/></g><path class="cls-2" d="M1515.14,358a17.48,17.48,0,0,1-8.34-2.11,1134,1134,0,0,0-191.6-82.38,17.5,17.5,0,0,1-7.88-28.07c76.53-88.85,131.34-122.59,172.47-106.21,41.76,16.64,58.55,80.85,52.83,202.1A17.49,17.49,0,0,1,1515.14,358ZM1351.2,248.72A1170.29,1170.29,0,0,1,1498.57,312c2-113.71-21.11-136-31.73-140.24C1456.48,167.65,1425.19,167.78,1351.2,248.72Z"/><path class="cls-2" d="M337.5,358A17.5,17.5,0,0,1,320,341.36c-5.71-121.25,11.07-185.46,52.84-202.1C414,122.88,468.8,156.62,545.33,245.47a17.5,17.5,0,0,1-8.5,28.26c-63.62,18-127.73,45.56-190.56,81.95A17.45,17.45,0,0,1,337.5,358ZM393.75,170.4a21.45,21.45,0,0,0-7.94,1.37c-10.6,4.23-33.62,26.42-31.75,139.45a872.08,872.08,0,0,1,146.77-63.17C440.8,182.53,409,170.4,393.75,170.4Z"/><path class="cls-2" d="M927.79,1184.74c-152.36,0-304.49-14.64-438.25-43.76C194.88,1077,32.6,955.78,32.6,799.78c0-144.1,54.17-269.31,161-372.16a99,99,0,0,0,30.34-74.22c-6.33-201.31,26.38-314.19,100-345.1C402-24.48,517.42,39.69,676.59,204.46c163.93-29.6,343.09-29.32,506.75.82C1343,39.81,1458.77-24.61,1537,8.35c74.13,31.23,106.76,145.77,99.72,350.14a99.07,99.07,0,0,0,29.59,73.72c103.67,102,156.23,225.68,156.23,367.57,0,86.45-49.13,161.87-146,224.16-83.78,53.84-204.35,97-348.64,124.82C1203.24,1172.79,1065.42,1184.74,927.79,1184.74ZM366.46,35.12a74.11,74.11,0,0,0-29,5.45c-57.05,24-84.22,131.75-78.56,311.74a134,134,0,0,1-41,100.52c-99.71,96-150.27,212.73-150.27,347,0,135.81,156.5,247.71,429.37,307,250.28,54.49,566.09,57.41,824.22,7.62,296.35-57.11,466.31-171.79,466.31-314.61,0-132.16-49-247.43-145.78-342.63a134.1,134.1,0,0,1-40-99.86c6.3-182.94-20.79-292.44-78.33-316.69-43.63-18.39-134.78.68-321.32,195.72a17.47,17.47,0,0,1-15.94,5.1c-165-31.66-347-32-512.37-.85a17.53,17.53,0,0,1-15.88-5.09C506,76.85,417.52,35.12,366.46,35.12Z"/><ellipse class="cls-2" cx="1286.52" cy="701.33" rx="91.36" ry="121.65"/><ellipse class="cls-2" cx="568.58" cy="701.33" rx="91.36" ry="121.65"/><ellipse class="cls-5" cx="1265.03" cy="672.56" rx="26.67" ry="36.67"/><ellipse class="cls-5" cx="590.07" cy="672.56" rx="26.67" ry="36.67"/><path class="cls-5" d="M1372.38,459.06c4.42,24.92-26.33,51.22-80.38,60.81S1190.54,517,1186.12,492.1s35.81-52.9,89.86-62.49S1368,434.13,1372.38,459.06Z"/><path class="cls-5" d="M502.87,458.27c-4.63,24.89,25.76,51.42,79.49,61.42s101.06-2.06,105.69-27-35.17-53.17-88.91-63.17S507.5,433.39,502.87,458.27Z"/><g class="cls-3"><path class="cls-2" d="M1615.13,494.65A832.29,832.29,0,0,0,1502,413.78c-15.35-9.1-32.2,9.3-21.8,23.85,141,197.56,150.6,392.08,67.74,531.94-10,16.83,7.38,36.64,25.19,28.54,58.56-26.65,107.83-57.94,144.62-93.85C1815.91,688.65,1650.7,526.21,1615.13,494.65Z"/></g><g class="cls-9"><path class="cls-5" d="M354.92,440.73c-26,17.73-49.77,39.9-64.29,67.82s-18.83,62.19-6.48,91.14,43.18,50.47,74.48,47.17c23.76-2.5,44.37-18.1,59.5-36.59s25.94-40.07,38.92-60.13A322.94,322.94,0,0,1,574.15,442c25.18-13.59,62.76-34.87,45.35-69.46-12.72-25.27-57.11-17.3-79.45-10.81C469,382.36,417.06,398.38,354.92,440.73Z"/></g><g class="cls-9"><path class="cls-5" d="M770,304.62c20-3.29,44.64-4.84,56.48,11.67,11.6,16.16,1.7,40.45-15.16,51s-37.89,11.12-57.78,11.26c-18,.12-37-.15-52.23-9.73C631.44,324.78,747.86,308.24,770,304.62Z"/></g><path class="cls-12" d="M1037.81,870.12c2.53,113.56-43.34,206.69-102.44,208S826.31,988.44,823.78,874.88"/><path class="cls-2" d="M934.09,1080.93c-29.18,0-56.9-21.25-78.17-60s-33.69-90.63-34.92-146l5.57-.12c1.21,54.48,13.37,105.42,34.23,143.42,20.25,36.88,46.24,57.11,73.3,57.12l1.21,0c57.47-1.28,102.2-93.31,99.71-205.16l5.58-.12C1043.15,985,996,1079.57,935.43,1080.92Z"/><path class="cls-13" d="M1037.55,895.8c-1.56,37.29-8.41,71.63-19.15,100.19-18.47,49.27-48.47,81.39-83,82.16s-66-30-86.6-78.56c-12-28-20.32-61.94-23.53-99.06Z"/><path class="cls-2" d="M934.09,1080.66c-34.12,0-66-29.09-87.63-80.09-12.36-28.85-20.57-63.37-23.73-99.83l-.23-2.65,217.66-4.85-.11,2.67c-1.53,36.49-8.2,71.41-19.31,101-19.68,52.47-50.77,83-85.32,83.78ZM828,903c3.28,34.95,11.25,68,23.11,95.64,21.08,49.69,51.92,77.89,84.25,77s61.83-30.08,80.75-80.54c10.65-28.34,17.17-61.74,18.88-96.75Z"/><path class="cls-2" d="M933.7,1002.17c-4.88-9.72-7.69-19.49-10.21-29.27a280.3,280.3,0,0,1-5.07-29.38c-1.32-9.8-2.19-19.61-2.87-29.43a259,259,0,0,1-.27-29.49,15.86,15.86,0,0,1,31.6-.7,259,259,0,0,1,1,29.47c-.24,9.84-.68,19.68-1.56,29.53a280.37,280.37,0,0,1-3.75,29.58C940.53,982.35,938.15,992.24,933.7,1002.17Z"/><path class="cls-2" d="M933.7,1097.05c-68.51,0-125.55-74.8-127.63-168a18.91,18.91,0,0,1,18.48-19.32H825a18.91,18.91,0,0,1,18.9,18.49c1.59,71.47,42.59,131.07,89.82,131.07H935c22.26-.5,43.36-13.93,59.4-37.82,17.43-25.94,26.57-60.44,25.75-97.16a18.9,18.9,0,0,1,18.48-19.32h.43a18.89,18.89,0,0,1,18.89,18.48c1,44.45-10.43,86.74-32.15,119.09-23.1,34.39-55,53.76-90,54.54C935.09,1097.05,934.39,1097.05,933.7,1097.05Z"/><g class="cls-3"><path class="cls-2" d="M825.23,900.53c2.83,32.76,9.66,63,19.47,89,1.38-.13,2.73-.08,4.13-.27,62.95-8.73,82-54.81,82-54.81l1.26,0s21,46.14,84.39,51.09c1.85.15,3.66.2,5.47.25,8.66-26.38,14.18-57,15.56-89.92Z"/></g><path class="cls-5" d="M1113.36,846.8c-4.72,60.85-42.58,91.65-98,86.54-63.28-5.82-80.61-55.34-84.9-73.83l-1.26,0c-3.46,18.67-18.57,68.91-81.52,77.54-55.15,7.57-94.34-21.52-101.76-82.1"/><path class="cls-2" d="M831.13,941c-20.73,0-38.91-5.66-53.26-16.72-19-14.61-31-38.47-34.72-69l5.54-.68c3.55,29,14.82,51.57,32.58,65.25,16.93,13,39.76,18,66,14.43C907.67,926,922.77,878.9,926.46,859l.41-2.23,5.79-.12.51,2.2c4.58,19.7,21.78,66.11,82.44,71.7,26.38,2.42,49-3.57,65.32-17.35,17.14-14.46,27.39-37.5,29.65-66.64l5.56.43c-2.38,30.66-13.31,55-31.61,70.47-17.5,14.77-41.52,21.22-69.43,18.64-56.8-5.23-77.64-44.25-85.07-67.66-6.37,23.72-25.45,63.62-82,71.38A125.69,125.69,0,0,1,831.13,941Z"/><g class="cls-3"><path class="cls-2" d="M1113.36,846.8c-4.73,60.85-42.55,91.66-98,86.52-63.26-5.81-80.57-55.31-84.91-73.81l-1.25,0c-3.45,18.67-18.54,68.89-81.54,77.51-55.11,7.6-94.32-21.5-101.7-82.08l1.89,0c8.68-.2,16.74,3.68,22.79,9.91,18.12,18.65,44.41,26.32,75.9,22C878.4,882.45,898,867.46,910,851.32l39.29-.87c12.74,15.58,33,29.69,64.94,32.62,31.7,2.95,57.63-5.88,74.9-25.31,5.77-6.5,13.65-10.73,22.33-10.92Z"/></g><path class="cls-2" d="M1116.5,847a95.9,95.9,0,0,1,.54,36.41,82.25,82.25,0,0,1-47.8,61.79,105,105,0,0,1-39.55,8.92,65.93,65.93,0,0,1-9.84,0,85,85,0,0,1-9.78-.78c-3.27-.44-6.54-.85-9.79-1.4l-9.76-2.46A109.21,109.21,0,0,1,954,931.05a113,113,0,0,1-27-30.54,136,136,0,0,1-15.1-36.7l19,14.71-1.25,0L947.91,863a128.93,128.93,0,0,1-13,37.57,109.51,109.51,0,0,1-25.66,31.93,108.37,108.37,0,0,1-35.9,19.94q-4.82,1.5-9.7,2.82l-9.74,1.8a89.67,89.67,0,0,1-9.74,1.22,73.07,73.07,0,0,1-9.85.43c-13.21.13-27-1.74-40.07-6.9A83.22,83.22,0,0,1,760,927.91a80.79,80.79,0,0,1-17.27-35.68,88.63,88.63,0,0,1,.08-36.88,3.33,3.33,0,0,1,4-2.55,3.36,3.36,0,0,1,2.25,1.7l0,.09c10.83,20.73,21.5,38.36,35.58,48.82a66.81,66.81,0,0,0,22.42,11.53,84.13,84.13,0,0,0,26.27,2.57c9.17-.66,18.84-1.75,27.22-4.64a74.65,74.65,0,0,0,23.07-11.72,69.1,69.1,0,0,0,17.18-19.54,82.45,82.45,0,0,0,9.71-25.55l0-.24a18.89,18.89,0,0,1,18.24-15.31l1.26,0h.25A18.87,18.87,0,0,1,949,855.2a80.11,80.11,0,0,0,10.42,25.35,66.29,66.29,0,0,0,18.09,19,74,74,0,0,0,23.84,10.56c8.58,2.34,18.27,3.08,27.5,3.29,18.57.17,35.22-4.32,48.91-15.64,6.94-5.6,13-13.06,18.37-21.8a228.26,228.26,0,0,0,14.1-29.39l0-.1a3.27,3.27,0,0,1,4.27-1.79A3.3,3.3,0,0,1,1116.5,847Z"/><path class="cls-2" d="M929.16,875a18.9,18.9,0,0,1-18.9-18.61l-1.38-88.72a18.91,18.91,0,0,1,18.61-19.2h.3a18.9,18.9,0,0,1,18.89,18.61l1.39,88.71A18.9,18.9,0,0,1,929.46,875Z"/><path class="cls-2" d="M1044,747.33c.85,37.91-52.21,90-119,91.47s-122.16-48.17-123-86.09,53.27-42.31,120.11-43.8S1043.18,709.41,1044,747.33Z"/><path class="cls-5" d="M973.4,739.16c.18,8.05-22.33,19.35-50.4,20s-51.06-9.66-51.24-17.71,22.56-9.22,50.63-9.85S973.22,731.12,973.4,739.16Z"/><path class="cls-2" d="M920.56,761.69c-12.39,0-24.56-2-34.53-5.79-10.56-4-16.68-9.24-16.79-14.42-.16-6.91,9.55-9.17,16.87-10.27,8.84-1.33,20.87-1.83,36.22-2.17,32.22-.72,53.37-.4,53.6,10.07h0c.12,5.17-5.76,10.7-16.14,15.14s-23.49,7.11-36.73,7.41C922.23,761.68,921.39,761.69,920.56,761.69Zm17.73-27.81c-5.89,0-11.51.13-15.84.22-15.16.34-27,.83-35.59,2.12-11.72,1.76-12.58,4.38-12.56,5.15,0,2.28,4.3,6.31,13.52,9.79,10,3.79,22.44,5.69,35.13,5.44s25-2.77,34.85-7c9.05-3.88,13.12-8.1,13.07-10.38C970.77,734.74,953.67,733.88,938.29,733.88Z"/><path class="cls-2" d="M66.38,1563.2a44.32,44.32,0,0,1-15.08-2.66,43.5,43.5,0,0,1-28.76-36.64c-5.28-50.47-1.59-120.87,46-169.69a17.5,17.5,0,1,1,25.06,24.42c-38.12,39.11-40.75,98.61-36.25,141.63a8.93,8.93,0,0,0,15.08,5.39c74.11-72.53,188.37-86.43,193.2-87a17.5,17.5,0,0,1,4,34.77h0c-1.06.12-107.34,13.23-172.75,77.24A43.5,43.5,0,0,1,66.38,1563.2Z"/><g class="cls-9"><path class="cls-5" d="M444.47,1999.52c24.92,10.16,57,16.09,75.92-3,10.7-10.78,14-27.37,11.47-42.34s-10.28-28.58-19.18-40.89c-25.53-35.36-62.21-62.32-103.15-77.16-29.6-10.73-89.17-26.83-114.45.92C245.32,1891.67,406,1983.83,444.47,1999.52Z"/></g></g></g></svg>